HIERARCHY
ROOT Hips
{
  OFFSET -12.0419 96.8532 -84.5856
  CHANNELS 6 Xposition Yposition Zposition Zrotation Xrotation Yrotation
  JOINT ToSpine
  {
    OFFSET -2.69724 7.43032 -0.144315
    CHANNELS 3 Zrotation Xrotation Yrotation
    JOINT Spine
    {
      OFFSET -0.0310711 10.7595 1.96963
      CHANNELS 3 Zrotation Xrotation Yrotation
      JOINT Spine1
      {
        OFFSET 13.1342 3.43533 0.764692
        CHANNELS 3 Zrotation Xrotation Yrotation
        JOINT Neck
        {
          OFFSET 29.8703 7.82586 -0.130764
          CHANNELS 3 Zrotation Xrotation Yrotation
          JOINT Head
          {
            OFFSET 9.52751 0.295786 -0.907742
            CHANNELS 3 Zrotation Xrotation Yrotation
            End Site
            {
              OFFSET 16.4037 0.713936 2.7358
            }
          }
        }
        JOINT LeftShoulder
        {
          OFFSET 27.5574 4.95586 2.47156
          CHANNELS 3 Zrotation Xrotation Yrotation
          JOINT LeftArm
          {
            OFFSET 1.20734 -0.998971 20.1238
            CHANNELS 3 Zrotation Xrotation Yrotation
            JOINT LeftForeArm
            {
              OFFSET 26.8049 -0.0536703 -0.155908
              CHANNELS 3 Zrotation Xrotation Yrotation
              JOINT LeftHand
              {
                OFFSET 26.6817 0 0.320147
                CHANNELS 3 Zrotation Xrotation Yrotation
                End Site
                {
                  OFFSET 18.6119 0 0.382219
                }
              }
            }
          }
        }
        JOINT RightShoulder
        {
          OFFSET 27.5927 4.71444 -2.65209
          CHANNELS 3 Zrotation Xrotation Yrotation
          JOINT RightArm
          {
            OFFSET 2.83739 -1.17114 -18.7564
            CHANNELS 3 Zrotation Xrotation Yrotation
            JOINT RightForeArm
            {
              OFFSET 28.839 -0.0548439 1.22491
              CHANNELS 3 Zrotation Xrotation Yrotation
              JOINT RightHand
              {
                OFFSET 26.5114 0 -0.101894
                CHANNELS 3 Zrotation Xrotation Yrotation
                End Site
                {
                  OFFSET 18.2168 0 0
                }
              }
            }
          }
        }
      }
    }
  }
  JOINT LeftUpLeg
  {
    OFFSET -4.76168 -1.9167 -10.2353
    CHANNELS 3 Zrotation Xrotation Yrotation
    JOINT LeftLeg
    {
      OFFSET 2.55951 -42.0585 -8.02213
      CHANNELS 3 Zrotation Xrotation Yrotation
      JOINT LeftFoot
      {
        OFFSET 3.16357 -42.5282 -3.95426
        CHANNELS 3 Zrotation Xrotation Yrotation
        JOINT LeftToeBase
        {
          OFFSET 0.346054 -6.02161 12.8035
          CHANNELS 3 Zrotation Xrotation Yrotation
          End Site
          {
            OFFSET 0.134235 -1.35082 5.13018
          }
        }
      }
    }
  }
  JOINT RightUpLeg
  {
    OFFSET -4.94151 -1.41743 10.6446
    CHANNELS 3 Zrotation Xrotation Yrotation
    JOINT RightLeg
    {
      OFFSET -2.56294 -42.0364 -7.94377
      CHANNELS 3 Zrotation Xrotation Yrotation
      JOINT RightFoot
      {
        OFFSET -3.0952 -42.555 -4.02241
        CHANNELS 3 Zrotation Xrotation Yrotation
        JOINT RightToeBase
        {
          OFFSET -0.0828122 -6.13587 12.8035
          CHANNELS 3 Zrotation Xrotation Yrotation
          End Site
          {
            OFFSET -0.131328 -1.35082 5.13018
          }
        }
      }
    }
  }
}
MOTION
Frames:	11
Frame Time:	0.0333333
-12.08 96.879 -84.8908 71.0522 -6.29888 -0.489848 -70.1915 0 88.8779 74.1908 71.947 14.8865 1.80969 20.3707 7.9724 -125.365 46.5755 141.141 -53.949 83.4324 87.95 1.33877 -6.07059 -16.4807 -88.9737 35.0417 -88.3365 -59.1607 12.3887 -96.6378 0.420957 0.000573144 0.358661 -0.0397647 2.85514 19.5039 -140.6 10.3476 89.974 -42.3571 21.5218 67.784 0.58676 0.000330687 0.0646651 -50.1151 11.8228 97.7382 -0.412471 26.4759 -8.78789 -2.83564 -4.22813 -0.160158 1.88611 -5.42025 4.29371 -56.1722 -6.8379 78.3463 3.44175 18.2478 -18.0267 -8.12363 -1.45119 1.20837 1.05643 -9.24442 0.649494 
-12.1266 96.8462 -84.7747 70.8973 -5.85557 -0.265951 -70.1915 0 88.8779 73.2765 71.8271 15.3216 1.9978 20.1953 8.34409 -124.839 46.3161 140.75 -53.556 83.6979 87.4112 1.34101 -5.86126 -16.1505 -88.5072 35.167 -89.3547 -59.6034 12.1917 -96.399 0.420957 0.000573144 0.358661 -0.0146093 2.77118 18.8857 -140.081 9.59551 88.8993 -31.7001 21.026 59.5176 0.58676 0.000330687 0.0646651 -49.6822 11.903 97.4205 -0.404684 26.6567 -8.76615 -3.00008 -4.48378 -0.171579 1.78058 -5.05529 3.74667 -56.0073 -6.65695 78.4379 3.43582 18.3725 -18.7288 -8.35838 -1.45381 1.24467 1.13294 -9.60801 0.507723 
-12.1121 96.9016 -84.7447 70.9442 -5.60392 -0.111122 -70.1915 0 88.8779 73.7496 71.8216 14.8506 1.97374 20.123 8.48663 -125.376 46.6594 141.581 -52.0257 83.964 86.3426 1.33153 -6.10537 -16.3488 -88.0643 34.4692 -89.4323 -60.2598 12.5211 -96.3989 0.420957 0.000573144 0.358661 0.012339 2.97186 17.5001 -140.809 8.96288 88.5023 -22.2088 19.1277 50.8752 0.58676 0.000330687 0.0646651 -49.7928 11.9694 97.4375 -0.426313 26.3923 -9.33398 -3.06292 -4.27302 -0.143864 1.82283 -5.31576 4.3681 -55.7392 -6.65091 78.4691 3.39485 19.1034 -19.3588 -7.697 -3.72267 1.18369 0.396053 -5.00233 1.65334 
-12.117 96.8083 -84.6863 70.9098 -5.67187 -0.412915 -70.1915 0 88.8779 75.1719 71.9927 13.8165 1.59862 20.3879 7.78273 -126.722 47.2566 142.686 -51.6431 83.8247 86.4146 1.28203 -6.73349 -16.1668 -88.1983 34.1816 -89.0522 -59.7 12.6942 -96.6571 0.420957 0.000573144 0.358661 0.064058 2.76914 16.1895 -142.663 8.09825 88.8564 -16.3114 16.5927 45.2758 0.58676 0.000330687 0.0646651 -49.7742 11.8454 97.6568 -0.47224 26.4883 -9.063 -3.28691 -4.49714 -0.147036 1.79847 -5.09396 3.76106 -55.7304 -6.82808 78.4647 3.38259 18.9526 -18.8713 -9.1448 -1.63578 1.32108 1.20553 -10.2895 0.605939 
-12.1126 96.8101 -84.6863 70.9431 -5.86067 -0.685558 -70.1915 0 88.8779 76.8313 72.0655 12.6885 1.37796 20.5703 7.08505 -128.167 47.7668 143.827 -51.3673 83.8226 86.8175 1.29314 -6.4941 -16.0054 -88.165 33.9943 -88.9728 -60.1324 12.8846 -96.6377 0.420957 0.000573144 0.358661 0.0708993 2.72863 16.0296 -145.066 7.78452 90.4819 -17.0328 18.1937 44.0394 0.58676 0.000330687 0.0646651 -50.0286 11.6779 97.8389 -0.482114 26.2666 -8.97939 -3.41363 -4.57158 -0.143788 1.63596 -4.82438 3.9314 -55.5029 -7.07665 78.4237 3.3222 19.3449 -18.4414 -8.94942 -1.77581 1.31685 1.22248 -10.1319 0.519731 
-12.0897 96.9277 -84.7483 70.9103 -6.29668 -0.979665 -70.1915 0 88.8779 78.2088 72.0551 11.8653 1.19192 20.6414 6.63477 -129.965 48.4064 145.381 -50.9794 83.8173 86.8004 1.27161 -6.76476 -15.893 -88.5258 34.2796 -88.0885 -59.8232 13.2815 -96.9519 0.420957 0.000573144 0.358661 0.0275939 3.17258 16.6204 -148.007 7.31038 92.7315 -24.4876 23.7365 48.1656 0.58676 0.000330687 0.0646651 -50.468 11.4968 98.033 -0.445466 25.6946 -8.77966 -3.89344 -4.41244 -0.0830436 1.58117 -4.85886 4.41547 -54.919 -7.40908 78.384 3.29541 20.2708 -18.6984 -7.97442 -4.36075 1.21331 0.161739 -4.41723 2.75325 
-12.0577 96.8462 -84.6431 70.7917 -6.82338 -1.46358 -70.1915 0 88.8779 78.1556 72.1046 12.0792 1.30022 20.7711 6.34173 -131.801 48.8962 147.053 -51.1867 83.9678 87.1871 1.27344 -6.80022 -16.0323 -88.9614 34.3343 -87.5763 -58.8684 13.3389 -97.2776 0.420957 0.000573144 0.358661 0.0359581 2.8786 16.9224 -150.645 5.82832 93.7199 -34.1327 26.4543 56.3586 0.58676 0.000330687 0.0646651 -50.6964 11.2739 98.266 -0.379198 25.4674 -8.12743 -3.37123 -4.09079 -0.095373 1.84551 -5.28212 4.0906 -54.7809 -7.60453 78.3381 3.33984 20.1179 -17.4061 -9.07859 -2.16156 1.31573 1.07573 -9.69335 1.1089 
-12.0229 96.8623 -84.556 70.563 -7.01653 -1.69831 -70.1915 0 88.8779 76.9157 71.9407 13.2149 1.63474 20.6383 6.46337 -132.738 49.2029 147.646 -50.9893 83.8666 86.8539 1.27315 -6.95465 -16.3855 -89.0214 33.8548 -87.4762 -58.4813 13.5295 -97.5108 0.420957 0.000573144 0.358661 0.0328163 2.75968 17.2846 -151.389 4.73616 93.3943 -42.1764 24.8645 64.7982 0.58676 0.000330687 0.0646651 -50.7858 10.9892 98.1568 -0.13195 25.0031 -7.8297 -3.11341 -3.53075 -0.0603762 2.13568 -5.89061 4.24155 -54.5411 -7.69541 78.3213 3.40526 20.129 -16.9251 -9.26456 -1.70364 1.34555 1.28252 -10.8892 0.453605 
-11.8429 96.9175 -84.3519 70.5679 -6.99551 -1.55588 -70.1915 0 88.8779 75.5267 71.668 14.2617 2.19826 20.3344 6.84408 -132.491 49.057 146.832 -52.5576 83.431 87.985 1.26934 -6.9855 -16.3274 -89.0143 33.8535 -87.3861 -56.6837 13.0914 -97.8143 0.420957 0.000573144 0.358661 0.00539735 2.66496 18.4752 -149.713 4.99053 93.1509 -48.2301 22.4226 70.8981 0.58676 0.000330687 0.0646651 -51.0793 11.198 98.2998 -0.040466 24.5872 -8.02823 -3.02087 -3.37698 -0.0532081 2.10675 -5.77645 4.02577 -54.685 -7.44153 78.3356 3.43995 20.1442 -16.8716 -9.03567 -2.52032 1.31781 1.09113 -9.08386 0.0523016 
-11.7443 96.8875 -84.1166 70.5029 -6.92593 -1.3359 -70.1915 0 88.8779 74.3532 71.4163 15.179 2.68879 20.1008 6.96878 -131.62 48.6718 145.846 -53.4306 83.4408 88.2136 1.29706 -6.62478 -16.4079 -88.6441 34.094 -88.1319 -55.7721 13.2006 -98.1791 0.420957 0.000573144 0.358661 -0.0381497 2.56974 20.3247 -147.663 6.15779 93.2903 -52.4974 20.3073 74.8088 0.58676 0.000330687 0.0646651 -51.0088 11.5891 98.4712 -0.00555394 24.6174 -8.14433 -2.72464 -3.38531 -0.0838102 2.12177 -5.67816 3.55976 -54.9933 -7.15815 78.3235 3.64341 19.6105 -17.6225 -9.91683 -1.78628 1.41562 1.28374 -11.0116 0.957634 
-11.6593 96.917 -83.9489 70.4545 -6.7055 -0.959993 -70.1915 0 88.8779 73.3034 71.1217 15.9542 2.97606 19.8015 7.23592 -128.865 48.3924 143.966 -48.163 83.6379 82.8659 1.26155 -7.0608 -16.236 -88.4698 34.416 -88.3316 -56.1692 13.2902 -98.1078 0.420957 0.000573144 0.358661 -0.125598 2.95039 22.0251 -145.232 7.59635 92.7644 -51.7223 18.6817 75.5404 0.58676 0.000330687 0.0646651 -50.9314 11.9365 98.4506 0.103732 24.5406 -9.02939 -2.71598 -3.057 -0.0511693 2.34974 -6.34063 4.376 -55.017 -6.83018 78.3327 3.80172 19.7525 -18.3363 -9.68522 -2.81729 1.38482 0.98865 -9.06015 1.28778 
